<svg xmlns="http://www.w3.org/2000/svg" viewBox="0 0 400 300" width="406" height="306" class="illustration styles_illustrationTablet__1DWOa"><g id="_509_graphic_flatline" data-name="#509_graphic_flatline"><path d="M116.32,232.59a.5.5,0,0,1-.5-.5V83.49a.5.5,0,0,1,1,0v148.6A.5.5,0,0,1,116.32,232.59Z" fill="#e6e7e8"></path><path d="M145.67,232.59a.51.51,0,0,1-.5-.5V83.49a.5.5,0,0,1,.5-.5.5.5,0,0,1,.5.5v148.6A.5.5,0,0,1,145.67,232.59Z" fill="#e6e7e8"></path><path d="M175,232.59a.51.51,0,0,1-.5-.5V83.49a.5.5,0,0,1,.5-.5.5.5,0,0,1,.5.5v148.6A.5.5,0,0,1,175,232.59Z" fill="#e6e7e8"></path><path d="M204.38,232.59a.5.5,0,0,1-.5-.5V83.49a.5.5,0,0,1,.5-.5.5.5,0,0,1,.5.5v148.6A.51.51,0,0,1,204.38,232.59Z" fill="#e6e7e8"></path><path d="M233.73,232.59a.5.5,0,0,1-.5-.5V83.49a.5.5,0,0,1,.5-.5.5.5,0,0,1,.5.5v148.6A.51.51,0,0,1,233.73,232.59Z" fill="#e6e7e8"></path><path d="M263.08,232.59a.5.5,0,0,1-.5-.5V83.49a.5.5,0,0,1,1,0v148.6A.5.5,0,0,1,263.08,232.59Z" fill="#e6e7e8"></path><path d="M292.43,232.59a.51.51,0,0,1-.5-.5V83.49a.5.5,0,0,1,.5-.5.5.5,0,0,1,.5.5v148.6A.5.5,0,0,1,292.43,232.59Z" fill="#e6e7e8"></path><path d="M321.78,232.59a.51.51,0,0,1-.5-.5V83.49a.5.5,0,0,1,.5-.5.5.5,0,0,1,.5.5v148.6A.5.5,0,0,1,321.78,232.59Z" fill="#e6e7e8"></path><path d="M321.78,84H84.57a.5.5,0,0,1,0-1H321.78a.5.5,0,0,1,0,1Z" fill="#e6e7e8"></path><path d="M321.78,113.34H84.57a.5.5,0,0,1-.5-.5.5.5,0,0,1,.5-.5H321.78a.5.5,0,0,1,.5.5A.5.5,0,0,1,321.78,113.34Z" fill="#e6e7e8"></path><path d="M321.78,142.7H84.57a.5.5,0,0,1-.5-.5.5.5,0,0,1,.5-.5H321.78a.5.5,0,0,1,.5.5A.5.5,0,0,1,321.78,142.7Z" fill="#e6e7e8"></path><path d="M321.78,172.05H84.57a.5.5,0,0,1-.5-.5.5.5,0,0,1,.5-.5H321.78a.5.5,0,0,1,.5.5A.5.5,0,0,1,321.78,172.05Z" fill="#e6e7e8"></path><path d="M321.78,201.4H84.57a.5.5,0,0,1-.5-.5.5.5,0,0,1,.5-.5H321.78a.5.5,0,0,1,.5.5A.5.5,0,0,1,321.78,201.4Z" fill="#e6e7e8"></path><path d="M321.78,230.75H84.57a.5.5,0,0,1,0-1H321.78a.5.5,0,0,1,0,1Z" fill="#e6e7e8"></path><path d="M340.19,234.67H84.57a3.5,3.5,0,0,1-3.5-3.5v-161a3.5,3.5,0,0,1,7,0V227.67H340.19a3.5,3.5,0,0,1,0,7Z" fill="#231f20"></path><circle cx="116.32" cy="200.9" r="6.4" fill="#ab24b6"></circle><circle cx="176.92" cy="173.86" r="6.4" fill="#ab24b6"></circle><circle cx="175.02" cy="110.64" r="6.4" fill="#231f20"></circle><circle cx="233.73" cy="99.48" r="6.4" fill="#231f20"></circle><circle cx="290.86" cy="117.04" r="6.4" fill="#231f20"></circle><circle cx="116.32" cy="142.19" r="6.4" fill="#231f20"></circle><circle cx="233.73" cy="200.9" r="6.4" fill="#ab24b6"></circle><circle cx="292.43" cy="142.19" r="6.4" fill="#ab24b6"></circle><path d="M233.73,202.9a2,2,0,0,1-.86-.2l-56-26.65-62.81,26.06a2,2,0,1,1-1.53-3.69L176.15,172a2,2,0,0,1,1.63.05l55.53,26.43L291,140.78a2,2,0,1,1,2.83,2.83l-58.71,58.7A2,2,0,0,1,233.73,202.9Z" fill="#ab24b6"></path><path d="M116.32,144.2a2,2,0,0,1-.95-3.77l58.71-31.55a2,2,0,0,1,.58-.2l60.46-11.16a2,2,0,0,1,1,.06l55.38,17.56a2,2,0,1,1-1.21,3.81l-54.91-17.41-59.65,11L117.27,144A2,2,0,0,1,116.32,144.2Z" fill="#231f20"></path><path d="M91.92,75.18H77.21a2,2,0,0,1-1.75-3.08l7.36-12.32a2,2,0,0,1,3.49,0L93.67,72.1A2,2,0,0,1,91.92,75.18Z" fill="#231f20"></path><path d="M334.25,238.53V223.81a2,2,0,0,1,3.08-1.75l12.31,7.36a2,2,0,0,1,0,3.49l-12.31,7.36A2,2,0,0,1,334.25,238.53Z" fill="#231f20"></path><path d="M202.14,51.63H157.56a4.82,4.82,0,0,0-4.81,4.81V83.55a4.82,4.82,0,0,0,4.81,4.82h4.31l9.42,10.35V88.37h30.85A4.81,4.81,0,0,0,207,83.55V56.44A4.81,4.81,0,0,0,202.14,51.63Z" fill="#ab24b6"></path><path d="M333.65,174.34H297L289.54,162v12.37h-.32a4.76,4.76,0,0,0-4.76,4.76v30.81a4.76,4.76,0,0,0,4.76,4.75h44.43a4.76,4.76,0,0,0,4.76-4.75V179.1A4.76,4.76,0,0,0,333.65,174.34Z" fill="#ab24b6"></path><path d="M197.5,63.93H162.21a.5.5,0,0,1-.5-.5.5.5,0,0,1,.5-.5H197.5a.5.5,0,0,1,.5.5A.51.51,0,0,1,197.5,63.93Z" fill="#fff"></path><path d="M189.61,74h-27.4a.5.5,0,0,1,0-1h27.4a.5.5,0,0,1,0,1Z" fill="#fff"></path><path d="M329.08,190H293.79a.51.51,0,0,1-.5-.5.5.5,0,0,1,.5-.5h35.29a.5.5,0,0,1,.5.5A.5.5,0,0,1,329.08,190Z" fill="#fff"></path><path d="M321.2,200H293.79a.51.51,0,0,1-.5-.5.5.5,0,0,1,.5-.5H321.2a.5.5,0,0,1,.5.5A.51.51,0,0,1,321.2,200Z" fill="#fff"></path></g></svg>